<svg xmlns="http://www.w3.org/2000/svg" width="900" height="1200" viewBox="0 0 900 1200"><defs><linearGradient id="sky" x1="0" y1="0" x2="0" y2="1"><stop stop-color="#d9c39b"/><stop offset="1" stop-color="#7b5938"/></linearGradient></defs><rect width="900" height="1200" fill="url(#sky)"/><path d="M0 610L120 510 210 560 320 420 410 540 520 390 640 520 760 430 900 560V760H0Z" fill="#5f4632"/><g fill="#302219"><rect x="40" y="430" width="230" height="300"/><rect x="315" y="360" width="250" height="370"/><rect x="610" y="410" width="240" height="320"/></g><g fill="#d7c39c"><rect x="80" y="470" width="28" height="55"/><rect x="130" y="470" width="28" height="55"/><rect x="180" y="470" width="28" height="55"/><rect x="360" y="410" width="30" height="60"/><rect x="420" y="410" width="30" height="60"/><rect x="480" y="410" width="30" height="60"/></g><g transform="translate(0 0)"><path d="M470 170v350" stroke="#1d1713" stroke-width="16"/><path d="M470 180L760 245 470 330Z" fill="#1c1c1c"/><path d="M470 230L760 295 470 380Z" fill="#9b2f26"/><path d="M470 280L760 345 470 430Z" fill="#c5a34b"/></g><g fill="#1e1713"><circle cx="180" cy="810" r="55"/><circle cx="310" cy="830" r="58"/><circle cx="450" cy="800" r="60"/><circle cx="590" cy="835" r="55"/><circle cx="730" cy="805" r="58"/></g><g fill="#6f4b30"><rect x="140" y="855" width="80" height="220" rx="30"/><rect x="270" y="875" width="85" height="210" rx="30"/><rect x="405" y="845" width="90" height="230" rx="30"/><rect x="550" y="875" width="80" height="205" rx="30"/><rect x="690" y="850" width="85" height="225" rx="30"/></g><rect x="110" y="75" width="680" height="110" rx="10" fill="#e8d7af" stroke="#4b3525" stroke-width="5"/><text x="450" y="125" text-anchor="middle" font-family="Georgia,serif" font-size="48" fill="#2a1e15">1848</text><text x="450" y="165" text-anchor="middle" font-family="Georgia,serif" font-size="28" fill="#2a1e15">Freiheit · Gleichheit · Bürgerrechte</text><rect x="165" y="965" width="570" height="150" rx="12" fill="#ead9b4" stroke="#4b3525" stroke-width="4"/><text x="450" y="1025" text-anchor="middle" font-family="Georgia,serif" font-size="34" fill="#2a1e15">Die Rechte der Bürger</text><text x="450" y="1070" text-anchor="middle" font-family="Georgia,serif" font-size="28" fill="#2a1e15">Gleiche Rechte ohne Unterschied der Religion</text><text x="450" y="1155" text-anchor="middle" font-family="Arial,sans-serif" font-size="18" fill="#e8d7af">Historische Illustration · keine Originalaufnahme</text></svg>