<svg xmlns="http://www.w3.org/2000/svg" width="900" height="1200" viewBox="0 0 900 1200"><defs><linearGradient id="room" x1="0" y1="0" x2="0" y2="1"><stop stop-color="#8a6137"/><stop offset="1" stop-color="#2d2119"/></linearGradient></defs><rect width="900" height="1200" fill="url(#room)"/><rect x="100" y="70" width="700" height="130" rx="10" fill="#e6d2a7" stroke="#5e4329" stroke-width="6"/><text x="450" y="130" text-anchor="middle" font-family="Georgia,serif" font-size="48" fill="#2e2117">CONGRESS OF BERLIN</text><text x="450" y="175" text-anchor="middle" font-family="Georgia,serif" font-size="34" fill="#2e2117">1878</text><rect x="195" y="245" width="510" height="250" fill="#c8b27f" stroke="#59412a" stroke-width="5"/><path d="M225 430l90-130 85 75 90-90 95 105 90-120" fill="none" stroke="#5b714e" stroke-width="10"/><g fill="#191511"><circle cx="180" cy="590" r="42"/><circle cx="285" cy="565" r="44"/><circle cx="390" cy="585" r="45"/><circle cx="510" cy="565" r="44"/><circle cx="615" cy="585" r="45"/><circle cx="720" cy="565" r="42"/></g><g fill="#3a2a20"><rect x="145" y="625" width="70" height="210" rx="25"/><rect x="250" y="605" width="72" height="220" rx="25"/><rect x="355" y="625" width="72" height="220" rx="25"/><rect x="475" y="605" width="72" height="220" rx="25"/><rect x="580" y="625" width="72" height="220" rx="25"/><rect x="685" y="605" width="70" height="210" rx="25"/></g><polygon points="120,820 780,820 690,1060 210,1060" fill="#6f4b2c" stroke="#2d2119" stroke-width="8"/><rect x="315" y="875" width="270" height="150" fill="#e6d2a7" stroke="#4b3524" stroke-width="4"/><text x="450" y="925" text-anchor="middle" font-family="Georgia,serif" font-size="31" fill="#2d2119">TREATY OF BERLIN</text><text x="450" y="965" text-anchor="middle" font-family="Georgia,serif" font-size="22" fill="#2d2119">13 July 1878</text><text x="450" y="1000" text-anchor="middle" font-family="Georgia,serif" font-size="20" fill="#2d2119">Equality and protection of religious minorities</text><circle cx="450" cy="1040" r="24" fill="#8b2b22"/><text x="450" y="1150" text-anchor="middle" font-family="Arial,sans-serif" font-size="18" fill="#e6d2a7">Historical illustration · not an archival photograph</text></svg>